# xmcd CD database file
#
# Track frame offsets:
#	183
#	25320
#	51273
#	70253
#	91845
#	119843
#	146365
#	170093
#	202990
#	225183
#	241065
#
# Disc length: 3661 seconds
#
# Revision: 2
# Processed by: cddbd v1.4b41PL1 Copyright (c) Steve Scherf et al.
# Submitted via: Feurio! 1.50.2ß - http://www.feurio.com
#
DISCID=900e4b0b
DTITLE=Lional Hampton - Unbekannte CD #900E4B0B8D9F581B
DYEAR=1900
DGENRE=
TTITLE0=Dizzy Spells
TTITLE1=Hello Dolly
TTITLE2=early Autumn
TTITLE3=I Found A New Baby
TTITLE4=Take The A-Train
TTITLE5=St. Louis Blues
TTITLE6=Black and Blue
TTITLE7=Caledonia
TTITLE8=Undecided
TTITLE9=Mack The Knife
TTITLE10=Cherokee
EXTD=
EXTT0=
EXTT1=
EXTT2=
EXTT3=
EXTT4=
EXTT5=
EXTT6=
EXTT7=
EXTT8=
EXTT9=
EXTT10=
PLAYORDER=
